Coordinates
version=1
nRows=21
nColumns=19
inDegrees=yes

Units are S.I. units (second, meters, Newtons, ...)
If the header above contains a line with 'inDegrees', this indicates whether rotational values are in degrees (yes) or radians (no).

endheader
time	subtalar_angle_l	subtalar_angle_r	pelvis_list	pelvis_rotation	pelvis_tilt	pelvis_tx	pelvis_ty	pelvis_tz	hip_flexion_l	hip_adduction_l	hip_rotation_l	hip_flexion_r	hip_adduction_r	hip_rotation_r	knee_flexion_l	knee_flexion_r	ankle_angle_l	ankle_angle_r
      1.01000000	     17.33333967	      9.70897770	     84.85599568	      9.07750066	      6.28610123	     -0.77423292	     -0.75898529	      0.72410836	     -7.36550688	      3.62147321	     -7.55028296	      8.71625764	     11.53079537	      2.17869031	    -50.69963798	    -18.73489942	     -5.90119501	      6.70968849
      1.02000000	     17.08803938	      9.99774368	     84.37308192	      8.45449973	      5.90323512	     -0.76281313	     -0.76037488	      0.72597824	     -5.09653068	      4.16566962	     -6.47207599	      7.44091878	     12.25555984	      2.69121905	    -53.02134367	    -17.24335415	     -5.65316523	      6.72817594
      1.03000000	     16.64040527	     10.48164730	     84.05365982	      7.88265535	      5.49970929	     -0.75165667	     -0.76172240	      0.72787997	     -2.77260573	      4.52366290	     -5.57905565	      6.14764509	     12.75809586	      3.22767157	    -55.07274689	    -15.68787188	     -4.66598206	      6.48862774
      1.04000000	     16.16633800	     10.95859240	     83.88084317	      7.28724386	      5.19929038	     -0.74072727	     -0.76299031	      0.72969419	     -0.53714078	      4.75072973	     -4.68835642	      4.74670031	     13.08640205	      3.90267009	    -56.82496989	    -14.17515251	     -3.61333670	      6.28271115
      1.05000000	     15.61103891	     11.40976528	     83.84540112	      6.70760445	      4.92298511	     -0.73002900	     -0.76417240	      0.73141733	      1.69593962	      4.82910439	     -3.87691453	      3.34387692	     13.24539958	      4.69235168	    -58.27373385	    -12.72953513	     -2.45117145	      6.07763788
      1.06000000	     14.94686706	     11.81104229	     83.92512260	      6.16102207	      4.69097593	     -0.71953766	     -0.76525451	      0.73300879	      3.90128498	      4.76832900	     -3.17084654	      1.93848615	     13.25716657	      5.57205233	    -59.41521596	    -11.37855214	     -1.17546588	      5.86868364
      1.07000000	     14.18267103	     12.15005619	     84.07603128	      5.59664858	      4.50149597	     -0.70925995	     -0.76621461	      0.73439439	      6.08432505	      4.64852629	     -2.46658611	      0.58845498	     13.17556290	      6.51400028	    -60.26762295	    -10.22048550	      0.11534772	      5.68140036
      1.08000000	     13.33255994	     12.43852911	     84.30179651	      5.05089280	      4.36162307	     -0.69915888	     -0.76703696	      0.73559652	      8.21381497	      4.42521922	     -1.85699248	     -0.73694364	     12.99221529	      7.51976377	    -60.80919442	     -9.20744128	      1.41839875	      5.52541673
      1.09000000	     12.42480405	     12.66343353	     84.52915509	      4.48792767	      4.25754261	     -0.68924499	     -0.76772709	      0.73654006	     10.32425915	      4.22063288	     -1.26485652	     -1.97917963	     12.78897602	      8.51969626	    -61.08688458	     -8.40291478	      2.62756174	      5.41415907
      1.10000000	     11.49296409	     12.83691202	     84.76367247	      3.91618305	      4.18682728	     -0.67949269	     -0.76826893	      0.73724112	     12.39526806	      4.00771809	     -0.73439802	     -3.15414452	     12.55875106	      9.50565546	    -61.08805411	     -7.77372737	      3.72052539	      5.35248868
      1.11000000	     11.00380124	     13.04337692	     84.95995127	      3.32999291	      4.07404064	     -0.66990466	     -0.76868384	      0.73769661	     14.51557903	      3.85304491	     -0.25355295	     -4.18638979	     12.35480753	     10.47709003	    -60.83889371	     -7.30300601	      4.28664582	      5.39694422
      1.12000000	      9.88378370	     13.11555229	     85.14667164	      2.72828454	      4.13068434	     -0.66038686	     -0.76893721	      0.73785745	     16.41093740	      3.70498539	      0.14183880	     -5.30780067	     12.13426094	     11.29758908	    -60.31482134	     -6.97989125	      5.45274859	      5.40134699
      1.13000000	      9.16358594	     13.20148514	     85.27644444	      2.11045029	      4.11905428	     -0.65098396	     -0.76906955	      0.73778537	     18.35199410	      3.63280230	      0.46338808	     -6.28646221	     11.96036915	     12.07521278	    -59.53779449	     -6.76442817	      6.03369201	      5.49964750
      1.14000000	      8.92713744	     13.34730679	     85.35297235	      1.47931997	      4.08675800	     -0.64164020	     -0.76908319	      0.73746526	     20.26388156	      3.62701783	      0.70151566	     -7.18107603	     11.82605530	     12.74089501	    -58.50688858	     -6.64376811	      6.29475498	      5.61237444
      1.15000000	      8.68835976	     13.47303663	     85.38932231	      0.83528320	      4.10196619	     -0.63229243	     -0.76897778	      0.73690823	     22.03412234	      3.66910546	      0.85093175	     -8.09171171	     11.71611316	     13.33688367	    -57.19497726	     -6.58354712	      6.62136208	      5.77894617
      1.16000000	      8.59338734	     13.58740076	     85.39251010	      0.17719837	      4.12232643	     -0.62288753	     -0.76876136	      0.73613690	     23.67751204	      3.74617249	      0.90901036	     -8.97905645	     11.62099449	     13.82943851	    -55.59284063	     -6.57658842	      6.84234015	      5.97222936
      1.17000000	      8.65040904	     13.69768733	     85.36826246	     -0.48594757	      4.14764785	     -0.61337508	     -0.76844528	      0.73517186	     25.16160189	      3.84440512	      0.87154073	     -9.85958117	     11.53813504	     14.27623748	    -53.68943233	     -6.60992853	      6.96877809	      6.21045755
      1.18000000	      8.89900944	     13.81140916	     85.32232856	     -1.15603148	      4.17290689	     -0.60368842	     -0.76803640	      0.73403456	     26.45547615	      3.95518218	      0.74639006	    -10.74423220	     11.46005122	     14.72066307	    -51.48133017	     -6.66888877	      6.98395153	      6.51246639
      1.19000000	      9.83174469	     13.92676467	     85.27863203	     -1.81919718	      4.28537221	     -0.59374057	     -0.76755790	      0.73270976	     27.43524437	      4.05116317	      0.55457460	    -11.70487635	     11.36454603	     15.07045455	    -48.98152519	     -6.80185009	      6.82024257	      7.10901904
      1.20000000	     10.22130227	     14.05565974	     85.22557805	     -2.49163187	      4.32623306	     -0.58349137	     -0.76698666	      0.73127193	     28.23068772	      4.12191442	      0.23738640	    -12.62397254	     11.25873240	     15.54684096	    -46.20170345	     -6.93599175	      6.68561480	      7.31759041
      1.21000000	     10.88170723	     14.15893055	     85.18644826	     -3.14609414	      4.52015011	     -0.57281486	     -0.76636692	      0.72965562	     28.59662994	      4.15582638	     -0.15840795	    -13.71835500	     11.11858890	     15.98606579	    -43.21066507	     -7.11659308	      6.29816530	      7.67877766
